<?xml version="1.0" encoding="UTF-8" standalone="no"?>
<!DOCTYPE svg PUBLIC "-//W3C//DTD SVG 1.1//EN"
 "http://www.w3.org/Graphics/SVG/1.1/DTD/svg11.dtd">
<!-- Generated by graphviz version 12.2.1 (20241206.2353)
 -->
<!-- Pages: 1 -->
<svg width="272pt" height="364pt"
 viewBox="0.00 0.00 272.34 364.45" xmlns="http://www.w3.org/2000/svg" xmlns:xlink="http://www.w3.org/1999/xlink">
<g id="graph0" class="graph" transform="scale(1 1) rotate(0) translate(4 360.45)">
<polygon fill="white" stroke="none" points="-4,4 -4,-360.45 268.34,-360.45 268.34,4 -4,4"/>
<g id="clust1" class="cluster">
<title>cluster100</title>
<path fill="none" stroke="black" d="M77.33,-8C77.33,-8 151.33,-8 151.33,-8 157.33,-8 163.33,-14 163.33,-20 163.33,-20 163.33,-117.82 163.33,-117.82 163.33,-123.82 157.33,-129.82 151.33,-129.82 151.33,-129.82 77.33,-129.82 77.33,-129.82 71.33,-129.82 65.33,-123.82 65.33,-117.82 65.33,-117.82 65.33,-20 65.33,-20 65.33,-14 71.33,-8 77.33,-8"/>
<text text-anchor="middle" x="145.21" y="-15.2" font-family="Times,serif" font-size="14.00">100</text>
</g>
<!-- sigma -->
<g id="node1" class="node">
<title>sigma</title>
<ellipse fill="none" stroke="black" cx="55.33" cy="-198.48" rx="55.33" ry="40.66"/>
<text text-anchor="middle" x="55.33" y="-209.93" font-family="Times,serif" font-size="14.00">sigma</text>
<text text-anchor="middle" x="55.33" y="-193.43" font-family="Times,serif" font-size="14.00">~</text>
<text text-anchor="middle" x="55.33" y="-176.93" font-family="Times,serif" font-size="14.00">Halfcauchy</text>
</g>
<!-- data -->
<g id="node5" class="node">
<title>data</title>
<ellipse fill="lightgrey" stroke="black" cx="114.33" cy="-81.16" rx="41.01" ry="40.66"/>
<text text-anchor="middle" x="114.33" y="-92.61" font-family="Times,serif" font-size="14.00">data</text>
<text text-anchor="middle" x="114.33" y="-76.11" font-family="Times,serif" font-size="14.00">~</text>
<text text-anchor="middle" x="114.33" y="-59.61" font-family="Times,serif" font-size="14.00">Normal</text>
</g>
<!-- sigma&#45;&gt;data -->
<g id="edge4" class="edge">
<title>sigma&#45;&gt;data</title>
<path fill="none" stroke="black" d="M74.49,-160.04C79.74,-149.77 85.49,-138.52 90.95,-127.85"/>
<polygon fill="black" stroke="black" points="93.95,-129.69 95.38,-119.19 87.71,-126.5 93.95,-129.69"/>
</g>
<!-- mu -->
<g id="node2" class="node">
<title>mu</title>
<polygon fill="none" stroke="black" points="218.46,-227.23 128.21,-227.23 128.21,-169.73 218.46,-169.73 218.46,-227.23"/>
<text text-anchor="middle" x="173.33" y="-209.93" font-family="Times,serif" font-size="14.00">mu</text>
<text text-anchor="middle" x="173.33" y="-193.43" font-family="Times,serif" font-size="14.00">~</text>
<text text-anchor="middle" x="173.33" y="-176.93" font-family="Times,serif" font-size="14.00">Deterministic</text>
</g>
<!-- mu&#45;&gt;data -->
<g id="edge3" class="edge">
<title>mu&#45;&gt;data</title>
<path fill="none" stroke="black" d="M158.9,-169.27C152.53,-156.82 144.88,-141.87 137.73,-127.89"/>
<polygon fill="black" stroke="black" points="141,-126.6 133.33,-119.29 134.77,-129.78 141,-126.6"/>
</g>
<!-- alpha1 -->
<g id="node3" class="node">
<title>alpha1</title>
<ellipse fill="none" stroke="black" cx="123.33" cy="-315.79" rx="41.01" ry="40.66"/>
<text text-anchor="middle" x="123.33" y="-327.24" font-family="Times,serif" font-size="14.00">alpha1</text>
<text text-anchor="middle" x="123.33" y="-310.74" font-family="Times,serif" font-size="14.00">~</text>
<text text-anchor="middle" x="123.33" y="-294.24" font-family="Times,serif" font-size="14.00">Normal</text>
</g>
<!-- alpha1&#45;&gt;mu -->
<g id="edge2" class="edge">
<title>alpha1&#45;&gt;mu</title>
<path fill="none" stroke="black" d="M139.29,-277.99C144.83,-265.22 151.05,-250.87 156.64,-237.97"/>
<polygon fill="black" stroke="black" points="159.8,-239.49 160.56,-228.92 153.37,-236.7 159.8,-239.49"/>
</g>
<!-- alpha2 -->
<g id="node4" class="node">
<title>alpha2</title>
<ellipse fill="none" stroke="black" cx="223.33" cy="-315.79" rx="41.01" ry="40.66"/>
<text text-anchor="middle" x="223.33" y="-327.24" font-family="Times,serif" font-size="14.00">alpha2</text>
<text text-anchor="middle" x="223.33" y="-310.74" font-family="Times,serif" font-size="14.00">~</text>
<text text-anchor="middle" x="223.33" y="-294.24" font-family="Times,serif" font-size="14.00">Normal</text>
</g>
<!-- alpha2&#45;&gt;mu -->
<g id="edge1" class="edge">
<title>alpha2&#45;&gt;mu</title>
<path fill="none" stroke="black" d="M207.37,-277.99C201.84,-265.22 195.61,-250.87 190.02,-237.97"/>
<polygon fill="black" stroke="black" points="193.29,-236.7 186.1,-228.92 186.87,-239.49 193.29,-236.7"/>
</g>
</g>
</svg>
