<?xml version="1.0" encoding="UTF-8" standalone="no"?>
<!DOCTYPE svg PUBLIC "-//W3C//DTD SVG 1.1//EN"
 "http://www.w3.org/Graphics/SVG/1.1/DTD/svg11.dtd">
<!-- Generated by graphviz version 12.2.1 (20241206.2353)
 -->
<!-- Pages: 1 -->
<svg width="364pt" height="369pt"
 viewBox="0.00 0.00 364.00 368.95" xmlns="http://www.w3.org/2000/svg" xmlns:xlink="http://www.w3.org/1999/xlink">
<g id="graph0" class="graph" transform="scale(1 1) rotate(0) translate(4 364.95)">
<polygon fill="white" stroke="none" points="-4,4 -4,-364.95 360,-364.95 360,4 -4,4"/>
<g id="clust1" class="cluster">
<title>cluster272</title>
<path fill="none" stroke="black" d="M20,-8C20,-8 122,-8 122,-8 128,-8 134,-14 134,-20 134,-20 134,-239.63 134,-239.63 134,-245.63 128,-251.63 122,-251.63 122,-251.63 20,-251.63 20,-251.63 14,-251.63 8,-245.63 8,-239.63 8,-239.63 8,-20 8,-20 8,-14 14,-8 20,-8"/>
<text text-anchor="middle" x="115.88" y="-15.2" font-family="Times,serif" font-size="14.00">272</text>
</g>
<g id="clust2" class="cluster">
<title>cluster2</title>
<path fill="none" stroke="black" d="M154,-129.82C154,-129.82 336,-129.82 336,-129.82 342,-129.82 348,-135.82 348,-141.82 348,-141.82 348,-239.63 348,-239.63 348,-245.63 342,-251.63 336,-251.63 336,-251.63 154,-251.63 154,-251.63 148,-251.63 142,-245.63 142,-239.63 142,-239.63 142,-141.82 142,-141.82 142,-135.82 148,-129.82 154,-129.82"/>
<text text-anchor="middle" x="336.62" y="-137.02" font-family="Times,serif" font-size="14.00">2</text>
</g>
<!-- p -->
<g id="node1" class="node">
<title>p</title>
<ellipse fill="none" stroke="black" cx="71" cy="-320.29" rx="44.72" ry="40.66"/>
<text text-anchor="middle" x="71" y="-331.74" font-family="Times,serif" font-size="14.00">p</text>
<text text-anchor="middle" x="71" y="-315.24" font-family="Times,serif" font-size="14.00">~</text>
<text text-anchor="middle" x="71" y="-298.74" font-family="Times,serif" font-size="14.00">Uniform</text>
</g>
<!-- assignment -->
<g id="node3" class="node">
<title>assignment</title>
<ellipse fill="none" stroke="black" cx="71" cy="-202.98" rx="55.33" ry="40.66"/>
<text text-anchor="middle" x="71" y="-214.43" font-family="Times,serif" font-size="14.00">assignment</text>
<text text-anchor="middle" x="71" y="-197.93" font-family="Times,serif" font-size="14.00">~</text>
<text text-anchor="middle" x="71" y="-181.43" font-family="Times,serif" font-size="14.00">Categorical</text>
</g>
<!-- p&#45;&gt;assignment -->
<g id="edge1" class="edge">
<title>p&#45;&gt;assignment</title>
<path fill="none" stroke="black" d="M71,-279.28C71,-271.5 71,-263.25 71,-255.16"/>
<polygon fill="black" stroke="black" points="74.5,-255.43 71,-245.43 67.5,-255.43 74.5,-255.43"/>
</g>
<!-- obs -->
<g id="node2" class="node">
<title>obs</title>
<ellipse fill="lightgrey" stroke="black" cx="85" cy="-81.16" rx="41.01" ry="40.66"/>
<text text-anchor="middle" x="85" y="-92.61" font-family="Times,serif" font-size="14.00">obs</text>
<text text-anchor="middle" x="85" y="-76.11" font-family="Times,serif" font-size="14.00">~</text>
<text text-anchor="middle" x="85" y="-59.61" font-family="Times,serif" font-size="14.00">Normal</text>
</g>
<!-- assignment&#45;&gt;obs -->
<g id="edge4" class="edge">
<title>assignment&#45;&gt;obs</title>
<path fill="none" stroke="black" d="M75.66,-162.08C76.75,-152.78 77.92,-142.76 79.05,-133.06"/>
<polygon fill="black" stroke="black" points="82.5,-133.72 80.18,-123.39 75.55,-132.91 82.5,-133.72"/>
</g>
<!-- sds -->
<g id="node4" class="node">
<title>sds</title>
<ellipse fill="none" stroke="black" cx="195" cy="-202.98" rx="44.72" ry="40.66"/>
<text text-anchor="middle" x="195" y="-214.43" font-family="Times,serif" font-size="14.00">sds</text>
<text text-anchor="middle" x="195" y="-197.93" font-family="Times,serif" font-size="14.00">~</text>
<text text-anchor="middle" x="195" y="-181.43" font-family="Times,serif" font-size="14.00">Uniform</text>
</g>
<!-- sds&#45;&gt;obs -->
<g id="edge2" class="edge">
<title>sds&#45;&gt;obs</title>
<path fill="none" stroke="black" d="M170.59,-168.67C160.9,-156.11 149.36,-141.93 138,-129.82 133.61,-125.13 128.82,-120.39 123.97,-115.81"/>
<polygon fill="black" stroke="black" points="126.66,-113.52 116.94,-109.3 121.9,-118.66 126.66,-113.52"/>
</g>
<!-- centers -->
<g id="node5" class="node">
<title>centers</title>
<ellipse fill="none" stroke="black" cx="299" cy="-202.98" rx="41.01" ry="40.66"/>
<text text-anchor="middle" x="299" y="-214.43" font-family="Times,serif" font-size="14.00">centers</text>
<text text-anchor="middle" x="299" y="-197.93" font-family="Times,serif" font-size="14.00">~</text>
<text text-anchor="middle" x="299" y="-181.43" font-family="Times,serif" font-size="14.00">Normal</text>
</g>
<!-- centers&#45;&gt;obs -->
<g id="edge3" class="edge">
<title>centers&#45;&gt;obs</title>
<path fill="none" stroke="black" d="M280.89,-166.03C272.73,-152.98 261.99,-139.17 249,-129.82 216.14,-106.16 171.67,-94.18 137.32,-88.16"/>
<polygon fill="black" stroke="black" points="138.02,-84.72 127.59,-86.57 136.9,-91.63 138.02,-84.72"/>
</g>
</g>
</svg>
